<?xml version="1.0" encoding="utf-8"?>
<!-- Generator: Adobe Illustrator 26.0.0, SVG Export Plug-In . SVG Version: 6.00 Build 0)  -->
<svg version="1.1" id="Layer_1" xmlns="http://www.w3.org/2000/svg" xmlns:xlink="http://www.w3.org/1999/xlink" x="0px" y="0px"
	 viewBox="0 0 512 370.4" style="enable-background:new 0 0 512 370.4;" xml:space="preserve">
<style type="text/css">
	.st0{fill:#0A68FF;}
</style>
<g id="Layer_2_00000067950008284355294140000012783203923216586908_">
	<g id="b">
		<path class="st0" d="M137.2,190.1h-122C6.8,190.2,0,183.4,0,175c0-8.4,6.8-15.1,15.1-15.1c0,0,0,0,0,0h122
			c8.4,0,15.1,6.8,15.1,15.1C152.3,183.4,145.5,190.1,137.2,190.1z"/>
		<path class="st0" d="M76.2,370.4c-8.4,0-15.1-6.8-15.2-15.1c0,0,0,0,0,0V175c0-8.4,6.8-15.1,15.1-15.1c8.4,0,15.1,6.8,15.1,15.1
			v180.2C91.3,363.6,84.5,370.3,76.2,370.4z"/>
		<path class="st0" d="M208,370.3c-8.4,0-15.1-6.8-15.1-15.1c0,0,0,0,0,0v-180c0-8.4,6.8-15.1,15.1-15.1c8.4,0,15.1,6.8,15.1,15.1
			c0,0,0,0,0,0v180C223.1,363.5,216.4,370.3,208,370.3C208,370.3,208,370.3,208,370.3z"/>
		<path class="st0" d="M446.2,370.3c-8.4,0-15.1-6.8-15.1-15.1c0,0,0,0,0,0v-180c0-8.4,6.8-15.1,15.1-15.1c8.4,0,15.1,6.8,15.1,15.1
			c0,0,0,0,0,0v180C461.4,363.5,454.6,370.3,446.2,370.3C446.2,370.3,446.2,370.3,446.2,370.3z"/>
		<path class="st0" d="M278.7,370.3c-8.4,0-15.1-6.8-15.1-15.1c0,0,0,0,0,0v-180c0-8.4,6.8-15.1,15.1-15.1c8.4,0,15.1,6.8,15.1,15.1
			c0,0,0,0,0,0v180C293.9,363.5,287.1,370.3,278.7,370.3C278.7,370.3,278.7,370.3,278.7,370.3z"/>
		<path class="st0" d="M375.5,370.3c-4.5,0-8.8-2-11.7-5.5l-74-90c-4.6-5.6-4.6-13.7,0-19.3l74-89.4c5.5-6.3,15.1-7,21.4-1.5
			c6.1,5.3,7,14.5,2,20.8L321,265.2l66.1,80.4c5.3,6.4,4.4,16-2,21.3C382.4,369.1,379,370.3,375.5,370.3L375.5,370.3z"/>
		<path class="st0" d="M301.4,280.3h-22.6c-8.4-0.2-15-7.2-14.8-15.5c0.2-8.1,6.7-14.5,14.8-14.8h22.6c8.4,0.2,15,7.2,14.8,15.5
			C315.9,273.6,309.4,280.1,301.4,280.3z"/>
		<path class="st0" d="M208,131.5c-36.3,0-65.8-29.4-65.8-65.8C142.2,29.4,171.7,0,208,0s65.8,29.4,65.8,65.8c0,0,0,0,0,0
			C273.7,102.1,244.3,131.5,208,131.5z M208,15.8c-27.6,0-50,22.4-50,50s22.4,50,50,50s50-22.4,50-50C258,38.2,235.6,15.8,208,15.8z
			"/>
		<path class="st0" d="M208,104.7c-21.5,0-39-17.4-39-38.9c0,0,0,0,0-0.1c0-4.4,3.5-7.9,7.9-7.9c0,0,0,0,0,0H239
			c4.4,0,7.9,3.5,7.9,7.9c0,0,0,0,0,0C246.9,87.3,229.5,104.7,208,104.7C208,104.7,207.9,104.7,208,104.7L208,104.7z M186.2,73.7
			c4.4,12,17.6,18.3,29.7,13.9c6.5-2.3,11.6-7.4,13.9-13.9H186.2z"/>
		<path class="st0" d="M446.2,131.5c-36.3,0-65.8-29.4-65.8-65.8c0-36.3,29.4-65.8,65.8-65.8S512,29.4,512,65.8c0,0,0,0,0,0
			C512,102.1,482.5,131.5,446.2,131.5z M446.2,15.8c-27.6,0-50,22.4-50,50s22.4,50,50,50s50-22.4,50-50S473.9,15.8,446.2,15.8z"/>
		<path class="st0" d="M446.2,104.7c-21.5,0-39-17.4-39-38.9c0,0,0,0,0-0.1c0-4.4,3.5-7.9,7.9-7.9c0,0,0,0,0,0h62.1
			c4.4,0,7.9,3.5,7.9,7.9c0,0,0,0,0,0C485.2,87.3,467.8,104.7,446.2,104.7C446.2,104.7,446.2,104.7,446.2,104.7L446.2,104.7z
			 M424.4,73.7c4.3,12,17.6,18.3,29.7,13.9c6.5-2.3,11.6-7.4,13.9-13.9H424.4z"/>
	</g>
</g>
</svg>
