<?xml version="1.0" encoding="utf-8"?>
<!-- Generator: Adobe Illustrator 25.3.1, SVG Export Plug-In . SVG Version: 6.00 Build 0)  -->
<svg version="1.1" id="Layer_1" xmlns="http://www.w3.org/2000/svg" xmlns:xlink="http://www.w3.org/1999/xlink" x="0px" y="0px"
	 viewBox="0 0 445 450" style="enable-background:new 0 0 445 450;" xml:space="preserve">
<style type="text/css">
	.st0{fill:#F10659;}
	.st1{fill:#090485;stroke:#FFFFFF;stroke-miterlimit:10;}
</style>
<g id="lazada">
	<path class="st0" d="M223,450c-6,0.1-11.9-2-17-5.8L16,298.3c-9.3-7.1-16-22.1-16-35.5V96.7c0-13.5,6.8-28.4,16.1-35.5L88.7,5.9
		c9.4-7.1,23.4-7.7,33.2-1.6l99.4,63.2c1.1,0.4,2.3,0.4,3.4,0l99-63.2c9.8-6.3,23.7-5.7,33.1,1.5l72,54.2c9.4,7.1,16.2,22,16.2,35.5
		v166.8c0,13.4-6.7,28.4-15.9,35.5L240,444.3C234.9,448.2,229,450.1,223,450z M223,411L223,411z M223,411L223,411z M222.6,410.7
		c0.3,0,0.5,0,0.8,0l188.3-146.1c0.6-0.7,1-1.7,1.2-2.7V95.8c-0.2-0.9-0.6-1.7-1.1-2.5l-71.5-53.8c-0.7-0.2-1.5-0.2-2.2-0.1
		l-98.9,63.2c-9.6,6.1-22.9,6.1-32.5,0l-99.3-63.1c-0.7-0.1-1.5-0.1-2.2,0.1l-72,54.9c-0.5,0.7-0.9,1.6-1.2,2.6v165.4
		c0.2,1,0.7,1.8,1.2,2.6L222.6,410.7z M33.3,265.3L33.3,265.3z M412,264.4L412,264.4z M221.5,67.6L221.5,67.6z"/>
	<path class="st1" d="M101.4,139.4h15v108.4H177v13.8h-75.6V139.4z"/>
	<path class="st1" d="M265.8,177.8v83.8h-13.4v-13.2h-0.2c-6.9,9.2-17.8,14.5-29.2,14.3c-23.2,0-41.1-16.7-41.1-42.3
		c0-24.8,17.2-43.5,40.9-43.5c11.2-0.2,21.9,4.8,28.9,13.6h0.2v-12.6h13.9V177.8z M252.4,220.1c0-17.2-11.9-30.6-28-30.6
		c-15.8,0-28.4,12-28.4,30.6c0,16.9,11.2,29.6,28.2,29.6C239.3,249.8,252.4,237.9,252.4,220.1z"/>
	<path class="st1" d="M294.5,249.1v0.3h48.9v12h-67.6v-10.3l48.5-61.1v-0.3h-45.9v-12h65.2v10L294.5,249.1z"/>
</g>
</svg>
