<svg xmlns="http://www.w3.org/2000/svg" width="142" height="39.72" viewBox="0 0 142 39.72"><defs><style>.a{fill:#fff;}.b{fill:#c62025;}.c{fill:#b9bbbd;}</style></defs><path class="a" d="M122.21,23a1.81,1.81,0,0,1,1.67.5,1.71,1.71,0,0,1-.32,2.42,1.93,1.93,0,0,1-2,.08,1.49,1.49,0,0,1-.73-1.39A1.67,1.67,0,0,1,122.21,23Z" transform="translate(0 0)"/><path class="a" d="M55.75,4.23h4.84c-.1,2.88-.18,5.76-.29,8.65a6.68,6.68,0,0,1,3.77-2.07,6,6,0,0,1,3.76.5,4.27,4.27,0,0,1,2,2.43,10.46,10.46,0,0,1,.43,4c-.08,2.82-.18,5.65-.28,8.47-1.53,0-3.07,0-4.61,0,0-2.9.21-5.79.25-8.69A3.48,3.48,0,0,0,65,15.4a2,2,0,0,0-1-.7,3.07,3.07,0,0,0-3,.64,2.38,2.38,0,0,0-.74,1.22,6.77,6.77,0,0,0-.11,1.28c-.09,2.79-.17,5.59-.28,8.38H55Q55.36,15.23,55.75,4.23Z" transform="translate(0 0)"/><path class="a" d="M104,26.22c.23-7.33.5-14.65.72-22,1.62,0,3.24,0,4.86,0-.09,2.88-.21,5.76-.28,8.64a6.51,6.51,0,0,1,3.68-2,5.81,5.81,0,0,1,4,.6A4.61,4.61,0,0,1,119,14.31a14.76,14.76,0,0,1,.23,4.35c-.08,2.52-.16,5-.26,7.56h-4.61c0-2.87.21-5.74.25-8.61a3.53,3.53,0,0,0-.57-2.19,2.24,2.24,0,0,0-1.4-.83,3.17,3.17,0,0,0-2.63.73,2.39,2.39,0,0,0-.81,1.6c-.16,3.1-.2,6.2-.34,9.3Z" transform="translate(0 0)"/><path class="a" d="M46.78,10.65a6.61,6.61,0,0,1,4.25.46A4.22,4.22,0,0,1,53,13.33a9.59,9.59,0,0,1,.51,4c-.1,2.89-.19,5.78-.29,8.68-1.55,0-3.09,0-4.64,0,.1-2.77.18-5.54.29-8.31a4,4,0,0,0-.55-2.45,2.13,2.13,0,0,0-1.3-.82,3.05,3.05,0,0,0-2.4.46,3,3,0,0,0-1.22,2.29c-.09,2.94-.2,5.88-.29,8.82-1.61,0-3.22,0-4.84,0,.12-5.05.44-10.1.37-15.15,1.37,0,2.74,0,4.1,0a21.06,21.06,0,0,1,.23,2.1A6.76,6.76,0,0,1,46.78,10.65Z" transform="translate(0 0)"/><path class="a" d="M72.58,12a16.24,16.24,0,0,1,7.88-1.25A6.55,6.55,0,0,1,83.91,12a4.5,4.5,0,0,1,1.57,2.49,12.08,12.08,0,0,1,.23,3.5c0,.78,0,1.56-.07,2.34a35.34,35.34,0,0,0,0,5.91c-1.38,0-2.75,0-4.12,0-.09-.52-.18-1-.28-1.57a6.41,6.41,0,0,1-3.51,1.79,6.78,6.78,0,0,1-4-.42A4,4,0,0,1,72,24.24,5.11,5.11,0,0,1,73.44,18a8.47,8.47,0,0,1,3.33-1.44,21.27,21.27,0,0,1,4.36-.42,1.79,1.79,0,0,0-.81-1.65,5.13,5.13,0,0,0-3-.44,10.94,10.94,0,0,0-3.87,1.1C73.15,14.07,72.83,13.06,72.58,12Zm4.57,7.82a1.92,1.92,0,0,0-.65,2.61,1.73,1.73,0,0,0,1.12.69,3.08,3.08,0,0,0,2.89-.92,2.07,2.07,0,0,0,.52-.95A11.93,11.93,0,0,0,81.14,19,7.91,7.91,0,0,0,77.15,19.85Z" transform="translate(0 0)"/><path class="a" d="M95.44,10.94a7.39,7.39,0,0,1,3.65,0,4.17,4.17,0,0,1,2.52,1.9,8.55,8.55,0,0,1,.85,4.68c-.11,2.9-.16,5.8-.31,8.69-1.54,0-3.07,0-4.61,0,.08-2.8.19-5.59.27-8.38a4,4,0,0,0-.5-2.34A2.2,2.2,0,0,0,96,14.62a3.05,3.05,0,0,0-2.25.35,2.91,2.91,0,0,0-1.33,1.89,5.29,5.29,0,0,0-.08,1c-.11,2.8-.17,5.6-.29,8.39H87.43c.12-5,.43-10.1.36-15.15h3.94c.07.7.12,1.41.2,2.12A6.66,6.66,0,0,1,95.44,10.94Z" transform="translate(0 0)"/><path class="a" d="M135.14,18.73a4.19,4.19,0,0,1,5.2-1.24,2.87,2.87,0,0,1,1.28,1.34,5.16,5.16,0,0,1,.37,2.46c-.1,1.69-.08,3.38-.19,5.06H140c0-1.86.15-3.72.16-5.59A2.25,2.25,0,0,0,139,18.67a2.69,2.69,0,0,0-3.72,1.94c-.1,1.9-.14,3.81-.21,5.71-.61.06-1.22,0-1.84,0,0-3,.27-6.06.23-9.09.54,0,1.08,0,1.62,0C135.11,17.76,135.13,18.25,135.14,18.73Z" transform="translate(0 0)"/><path class="a" d="M123.52,17.27c.65,0,1.3,0,1.94,0,.61,1.53,1.12,3.09,1.67,4.63.35.93.67,1.86.93,2.82.95-2.51,2.05-5,3.07-7.44h1.94c-1.42,3-2.85,6.05-4.26,9.08a8.14,8.14,0,0,1-1.78-.07C125.84,23.29,124.69,20.27,123.52,17.27Z" transform="translate(0 0)"/><path class="a" d="M49.65,30.06c.34-.42.68-.85,1-1.26a4.38,4.38,0,0,1,.81,0c.37.4.7.83,1,1.25-.29,0-.57,0-.86,0a3.91,3.91,0,0,1-.56-.66,7.32,7.32,0,0,0-.59.66Z" transform="translate(0 0)"/><path class="a" d="M52.89,28.79h.87c-.24.28-.48.57-.71.86h-.58Q52.67,29.23,52.89,28.79Z" transform="translate(0 0)"/><path class="a" d="M75.29,30.06c.35-.42.69-.84,1-1.27h.85q.49.63,1,1.26h-.88l-.58-.68-.57.68Z" transform="translate(0 0)"/><path class="a" d="M106.05,28.8c.38,0,.76,0,1.14,0l.7,1.26h-.82Z" transform="translate(0 0)"/><path class="a" d="M45.16,29.18h1.29c0,.29,0,.59,0,.88-.42,0-.85,0-1.27,0C45.16,29.77,45.16,29.47,45.16,29.18Z" transform="translate(0 0)"/><path class="a" d="M64.61,29.18H65.8c0,.93,0,1.86,0,2.78.39-.45.75-.93,1.14-1.39.46,0,.92,0,1.38,0-.42.54-.88,1-1.32,1.56.46.69,1,1.37,1.43,2.06-.48,0-1,0-1.45,0-.33-.49-.63-1-1-1.48l-.18,0a10,10,0,0,0,0,1.45H64.6C64.56,32.52,64.56,30.85,64.61,29.18Z" transform="translate(0 0)"/><path class="a" d="M70.83,30.06v-.88H72.1v.88C71.68,30.07,71.25,30.07,70.83,30.06Z" transform="translate(0 0)"/><path class="a" d="M99,29.18h1.2v1.75a2.06,2.06,0,0,1,1.42-.46,1.12,1.12,0,0,1,1,1.11c0,.87,0,1.74,0,2.61H101.4c0-.8,0-1.6-.05-2.4a.45.45,0,0,0-.37-.38,1.62,1.62,0,0,0-.81.17v2.61c-.41,0-.81,0-1.21,0C99,32.51,99,30.85,99,29.18Z" transform="translate(0 0)"/><path class="a" d="M111.89,29.18h1.28v.88H111.9C111.89,29.77,111.89,29.48,111.89,29.18Z" transform="translate(0 0)"/><path class="a" d="M126.55,29.19c.44,0,.87,0,1.31,0,0,.29,0,.59,0,.88H126.6C126.57,29.78,126.56,29.49,126.55,29.19Z" transform="translate(0 0)"/><path class="a" d="M38.44,29.39h4.28v.9a11.05,11.05,0,0,0-1.52,0c0,1.29,0,2.58,0,3.86H39.92c0-1.29,0-2.59,0-3.89H38.43C38.43,30,38.44,29.69,38.44,29.39Z" transform="translate(0 0)"/><path class="a" d="M55.63,29.54h1.19c0,.34,0,.68,0,1H58v.8H56.83a15.11,15.11,0,0,0,0,1.78.4.4,0,0,0,.38.31,2.32,2.32,0,0,0,.74-.1v.82a3.29,3.29,0,0,1-1.84-.08,1,1,0,0,1-.51-.87c0-.62,0-1.24,0-1.86h-.46c0-.27,0-.53,0-.8h.45C55.62,30.22,55.62,29.88,55.63,29.54Z" transform="translate(0 0)"/><path class="a" d="M94.11,29.53H95.3v1c.39,0,.77,0,1.16,0v.8H95.3c0,.55,0,1.1,0,1.65a.42.42,0,0,0,.27.41,1.77,1.77,0,0,0,.88-.07v.82a2.72,2.72,0,0,1-2-.17,1,1,0,0,1-.38-.79c-.07-.62,0-1.24,0-1.85h-.46v-.79h.46C94.1,30.22,94.1,29.88,94.11,29.53Z" transform="translate(0 0)"/><path class="a" d="M108.71,29.53a2.55,2.55,0,0,1,.67.07,1.14,1.14,0,0,1-.51,1.53,2.44,2.44,0,0,1,.21,2.07,1.65,1.65,0,0,1-1,1,2.57,2.57,0,0,1-2-.11,2,2,0,0,1-.74-2.46,1.71,1.71,0,0,1,1.19-1.06,15.29,15.29,0,0,1,2,0C108.94,30.33,108.76,29.86,108.71,29.53ZM107,31.31a.78.78,0,0,0-.42.5,2,2,0,0,0,0,1.3.73.73,0,0,0,1.28,0,2.13,2.13,0,0,0,0-1.43A.71.71,0,0,0,107,31.31Z" transform="translate(0 0)"/><path class="a" d="M49.64,31a2.27,2.27,0,0,1,1.81-.49,1.6,1.6,0,0,1,1.09.53,2.33,2.33,0,0,1,.34,1.59c-.87,0-1.75,0-2.63,0,.09.28.18.62.49.73A2.26,2.26,0,0,0,52.81,33c0,.33,0,.66,0,1a3.61,3.61,0,0,1-2.88,0,1.64,1.64,0,0,1-.85-1.36A2,2,0,0,1,49.64,31Zm1,.31a1,1,0,0,0-.39.62c.49,0,1,0,1.49,0-.08-.24-.14-.53-.38-.67A.76.76,0,0,0,50.63,31.28Z" transform="translate(0 0)"/><path class="a" d="M76,30.56a2.26,2.26,0,0,1,2,.33,2.18,2.18,0,0,1,.47,1.7c-.88,0-1.77,0-2.65,0,.1.27.18.61.48.73A2.26,2.26,0,0,0,78.45,33c0,.33,0,.66,0,1a3.61,3.61,0,0,1-3,0,1.92,1.92,0,0,1-.72-2.18A1.73,1.73,0,0,1,76,30.56Zm.29.7a1,1,0,0,0-.43.63c.49,0,1,0,1.47,0-.06-.23-.1-.51-.32-.64A.74.74,0,0,0,76.31,31.26Z" transform="translate(0 0)"/><path class="a" d="M82.41,30.94a1.84,1.84,0,0,1,1.29-.47,1.26,1.26,0,0,1,.9.58,2.1,2.1,0,0,1,1.27-.58,1.05,1.05,0,0,1,1,.57,1.51,1.51,0,0,1,.13.76c0,.8,0,1.6,0,2.39H85.81c0-.82.06-1.65,0-2.46a.39.39,0,0,0-.34-.33,1.29,1.29,0,0,0-.72.18V34.2h-1.2c0-.79,0-1.59,0-2.39a.38.38,0,0,0-.3-.38,1.32,1.32,0,0,0-.75.15c0,.88,0,1.75,0,2.63l-1.21,0c0-1.21,0-2.42,0-3.62h1.18Z" transform="translate(0 0)"/><path class="a" d="M120.2,31.18a1.51,1.51,0,0,1,1.22-.71,2.47,2.47,0,0,1,1,.19,4.1,4.1,0,0,1,1.26-.09V33.9a1.54,1.54,0,0,1-.83,1.43,4.31,4.31,0,0,1-2.54.07c0-.31,0-.62,0-.94a2.82,2.82,0,0,0,1.81.14c.31-.12.32-.51.39-.78a2,2,0,0,1-1.74.2A1.43,1.43,0,0,1,120,33,2.42,2.42,0,0,1,120.2,31.18Zm1.31.26a1.12,1.12,0,0,0-.36,1,.79.79,0,0,0,.33.69,1.12,1.12,0,0,0,1-.11c0-.56,0-1.12,0-1.69A1.3,1.3,0,0,0,121.51,31.44Z" transform="translate(0 0)"/><path class="a" d="M130.81,30.66a5.1,5.1,0,0,1,2.33-.11,1.15,1.15,0,0,1,1,1c0,.89,0,1.79,0,2.69h-1.19v-.35a1.65,1.65,0,0,1-2,.21,1.21,1.21,0,0,1-.25-1.51,1.29,1.29,0,0,1,.77-.52,13.3,13.3,0,0,1,1.54-.23c-.09-.17-.16-.42-.39-.47a2.9,2.9,0,0,0-1.74.21C130.82,31.24,130.82,31,130.81,30.66Zm1.11,2a.43.43,0,0,0,0,.78,1.13,1.13,0,0,0,1-.18c0-.25,0-.5,0-.75A2.68,2.68,0,0,0,131.92,32.68Z" transform="translate(0 0)"/><path class="a" d="M138.23,30.93a2.24,2.24,0,0,1,1.16-.47,1.16,1.16,0,0,1,1,.42,2.08,2.08,0,0,1,.27,1.3,17,17,0,0,1,0,2h-1.13c-.06-.8,0-1.6-.09-2.4a.4.4,0,0,0-.38-.39,1.46,1.46,0,0,0-.79.18c0,.87,0,1.74,0,2.61H137c0-1.2,0-2.41,0-3.62.39,0,.79,0,1.18,0C138.22,30.69,138.22,30.81,138.23,30.93Z" transform="translate(0 0)"/><path class="a" d="M45.2,30.57h1.2c0,1.2,0,2.41,0,3.62H45.2Z" transform="translate(0 0)"/><path class="a" d="M70.88,30.56h1.18c0,1.21,0,2.42,0,3.62H70.87C70.86,33,70.86,31.78,70.88,30.56Z" transform="translate(0 0)"/><path class="a" d="M112,30.57c.39,0,.78,0,1.16,0,.08,1.2,0,2.41,0,3.62q-.62,0-1.23,0C111.93,33,111.88,31.77,112,30.57Z" transform="translate(0 0)"/><path class="a" d="M126.62,30.56h1.19c0,1.21,0,2.42,0,3.62-.4,0-.8,0-1.21,0C126.62,33,126.61,31.77,126.62,30.56Z" transform="translate(0 0)"/><path class="a" d="M76.1,34.66h1.21v.88H76.1Z" transform="translate(0 0)"/><path class="b" d="M15.26.79A2.36,2.36,0,0,1,17,0,1.39,1.39,0,0,1,18,.4a12.85,12.85,0,0,1,1.56,2.1,20.35,20.35,0,0,1,3.07,11.17A24.7,24.7,0,0,1,22.18,18C18.06,14.18,14,10.28,9.89,6.41Z" transform="translate(0 0)"/><path class="b" d="M.93,15.69C3.7,12.81,6.46,9.9,9.23,7a26,26,0,0,0-2.67,8.23,25,25,0,0,0,.56,9.85l-6.36-6A2.21,2.21,0,0,1,0,17.33,2.53,2.53,0,0,1,.93,15.69Z" transform="translate(0 0)"/><path class="b" d="M27.44,11.11c-.13-.83-.31-1.65-.5-2.47,1.94,1.8,3.83,3.63,5.75,5.44A4,4,0,0,1,34,15.68a2,2,0,0,1-.54,2c-2.89,3-5.77,6-8.65,9A25,25,0,0,0,27.44,11.11Z" transform="translate(0 0)"/><path class="b" d="M11.93,16q6.12,5.84,12.27,11.63l-4.93,5.16a3.67,3.67,0,0,1-1.62,1.19,1.62,1.62,0,0,1-1.74-.52,19.43,19.43,0,0,1-3.61-6.9,21.39,21.39,0,0,1-.81-6.32A20.9,20.9,0,0,1,11.93,16Z" transform="translate(0 0)"/><path class="c" d="M13.68,36.12a53.77,53.77,0,0,1,9.41.24,14.61,14.61,0,0,1,3.59.81,2,2,0,0,1,.65.39.48.48,0,0,1-.06.67,3.51,3.51,0,0,1-1.08.53,17.3,17.3,0,0,1-3.11.62c-1.66.2-3.32.3-5,.34h-2c-1.66,0-3.31-.14-5-.32a16.39,16.39,0,0,1-3.6-.77,2.06,2.06,0,0,1-.77-.45.39.39,0,0,1-.07-.52A2.16,2.16,0,0,1,7.79,37,25.5,25.5,0,0,1,13.68,36.12Z" transform="translate(0 0)"/></svg>