<?xml version="1.0" encoding="utf-8"?>
<!-- Generator: Adobe Illustrator 26.0.0, SVG Export Plug-In . SVG Version: 6.00 Build 0)  -->
<svg version="1.1" id="Layer_1" xmlns="http://www.w3.org/2000/svg" xmlns:xlink="http://www.w3.org/1999/xlink" x="0px" y="0px"
	 viewBox="0 0 448 512" style="enable-background:new 0 0 448 512;" xml:space="preserve">
<style type="text/css">
	.st0{fill:#F6412D;}
</style>
<g id="shopee">
	<path class="st0" d="M352,128C352,57.3,294.7,0,224,0S96,57.3,96,128H0v304c0,44.2,35.8,80,80,80h288c44.2,0,80-35.8,80-80V128
		L352,128z M224,32c53,0.1,95.9,43,96,96H128C128.1,75,171,32.1,224,32z M416,432c0,26.5-21.5,48-48,48H80c-26.5,0-48-21.5-48-48
		V160h384V432z"/>
	<path class="st0" d="M289.7,368.4c0.2,9-1.7,17.9-5.4,26.1c-3.5,7.5-8.6,14.1-15,19.4c-6.7,5.5-14.3,9.5-22.6,12
		c-9.1,2.7-18.5,4.1-28,4c-6.5,0-13-0.6-19.4-1.8c-5.4-1-10.8-2.5-16-4.4c-4.1-1.4-8-3.2-11.8-5.3c-2.4-1.3-4.6-2.8-6.6-4.7
		c-1.3-1.4-2.2-3.1-2.7-4.9c-0.7-2.6-1-5.3-0.9-8c0-2,0.1-3.9,0.3-5.9c0.2-1.3,0.5-2.6,1-3.8c0.3-0.8,0.9-1.5,1.6-2
		c0.7-0.4,1.5-0.6,2.3-0.6c1.5,0,3.6,0.9,6.4,2.7c3.4,2.2,6.9,4.2,10.6,6c5,2.4,10.2,4.4,15.5,6c6.8,2,13.9,2.9,21,2.8
		c5.6,0.1,11.2-0.7,16.5-2.4c4.7-1.4,9.1-3.8,12.9-6.8c3.6-2.9,6.4-6.7,8.3-10.9c2-4.6,3-9.6,2.9-14.7c0.2-5.3-1.2-10.6-4-15.1
		c-2.8-4.3-6.4-8-10.6-11c-4.7-3.4-9.7-6.3-15-8.7l-17.4-8c-5.9-2.7-11.7-5.8-17.2-9.1c-5.5-3.2-10.5-7.2-15-11.8
		c-4.5-4.6-8.1-10-10.7-15.9c-2.7-6.1-4.1-13.4-4.1-21.8c-0.1-8,1.5-16,4.8-23.3c3-6.6,7.6-12.5,13.2-17.1c6-4.8,12.8-8.4,20.1-10.6
		c8.2-2.5,16.7-3.7,25.2-3.6c4.7,0,9.4,0.4,14,1.2c4.5,0.8,8.9,1.8,13.2,3.2c3.8,1.2,7.5,2.7,11,4.5c2.3,1,4.4,2.4,6.4,4
		c0.8,0.7,1.4,1.5,2,2.4c0.4,0.7,0.6,1.5,0.8,2.2c0.2,1.1,0.4,2.2,0.5,3.3c0.1,1.3,0.2,3,0.2,5c0,1.7-0.1,3.4-0.2,5.2
		c-0.1,1.3-0.4,2.5-0.7,3.8c-0.2,0.9-0.7,1.7-1.4,2.3c-0.6,0.5-1.3,0.7-2,0.7c-1.2,0-3-0.8-5.6-2.3s-5.6-3.2-9.3-5.1
		c-4.2-2.1-8.5-3.8-13-5.1c-5.4-1.6-11.1-2.4-16.8-2.4c-5.1-0.1-10.3,0.7-15.1,2.3c-3.9,1.3-7.5,3.4-10.6,6.2
		c-2.8,2.5-4.9,5.7-6.3,9.2c-1.4,3.6-2.1,7.4-2.1,11.3c-0.1,5.3,1.2,10.5,4,15c2.8,4.3,6.5,8.1,10.7,11.1c4.8,3.4,9.9,6.4,15.2,8.9
		l17.4,8.1c5.9,2.8,11.7,5.8,17.4,9c5.6,3.2,10.7,7.1,15.2,11.6c4.5,4.6,8.2,9.9,10.8,15.8C288.3,353,289.7,360.1,289.7,368.4z"/>
</g>
</svg>
